<svg fill="#ffffff" opacity="1" height="256px" width="256px" version="1.1" id="Icons" xmlns="http://www.w3.org/2000/svg" xmlns:xlink="http://www.w3.org/1999/xlink" viewBox="0 0 32 32" xml:space="preserve" stroke="#ffffff" stroke-width="0.00032"><g id="SVGRepo_bgCarrier" stroke-width="0"></g><g id="SVGRepo_tracerCarrier" stroke-linecap="round" stroke-linejoin="round"></g><g id="SVGRepo_iconCarrier"> <g> <path d="M22,31H10c-0.4,0-0.7-0.2-0.9-0.5s-0.2-0.7,0-1l2-3c0.2-0.3,0.5-0.4,0.8-0.4h8c0.3,0,0.6,0.2,0.8,0.4l2,3 c0.2,0.3,0.2,0.7,0,1S22.4,31,22,31z"></path> </g> <g> <path d="M17,10.6v9l7.4-3.6c0.3-0.2,0.6-0.5,0.6-0.9V6.6L17,10.6z"></path> <path d="M16,8.9l8.1-4l-7.6-3.7c-0.3-0.1-0.6-0.1-0.9,0L7.9,4.8L16,8.9z"></path> <path d="M15,10.6l-8-4v8.5c0,0.4,0.2,0.7,0.6,0.9l7.4,3.6V10.6z"></path> </g> <path d="M29,4h-2.7C26.7,4.5,27,5.2,27,5.9v9.2c0,1.1-0.7,2.2-1.7,2.7l-8,3.9C16.9,21.9,16.5,22,16,22s-0.9-0.1-1.3-0.3l-8-3.9 c-1-0.5-1.7-1.6-1.7-2.7V5.9C5,5.2,5.3,4.5,5.7,4H3C2.4,4,2,4.4,2,5v19c0,0.6,0.4,1,1,1h26c0.6,0,1-0.4,1-1V5C30,4.4,29.6,4,29,4z"></path> </g></svg>